<?xml version="1.0" standalone="no"?>
<!DOCTYPE svg PUBLIC "-//W3C//DTD SVG 20010904//EN"
 "http://www.w3.org/TR/2001/REC-SVG-20010904/DTD/svg10.dtd">
<svg version="1.0" xmlns="http://www.w3.org/2000/svg"
 width="1080.000000pt" height="759.000000pt" viewBox="0 0 1080.000000 759.000000"
 preserveAspectRatio="xMidYMid meet">

<g transform="translate(0.000000,759.000000) scale(0.100000,-0.100000)"
fill="#000000" stroke="none">
<path d="M4577 4158 c-47 -123 -135 -350 -195 -505 l-110 -283 88 0 88 0 17
50 c9 27 21 52 26 55 5 3 86 6 181 7 l173 1 24 -56 24 -57 88 0 89 0 -12 28
c-7 15 -15 31 -20 37 -4 5 -8 15 -8 22 0 7 -11 37 -25 67 -14 30 -25 61 -25
68 0 8 -4 18 -9 24 -4 5 -21 43 -35 84 -28 75 -31 85 -59 150 -8 19 -24 62
-37 95 -12 33 -28 74 -35 90 -6 17 -18 46 -25 65 -6 19 -16 45 -21 58 -5 12
-13 32 -18 45 -5 12 -16 38 -25 59 -9 20 -16 43 -16 51 0 9 -4 19 -10 22 -5 3
-10 15 -10 26 0 48 -23 3 -103 -203z m157 -362 c31 -87 53 -162 50 -167 -3 -5
-57 -9 -120 -9 -91 0 -114 3 -114 14 0 29 113 337 121 329 4 -4 33 -79 63
-167z"/>
<path d="M5530 4364 c-234 -63 -374 -252 -374 -504 1 -298 190 -500 469 -502
97 -1 176 20 233 62 53 38 62 38 62 -2 0 -53 10 -59 81 -56 l64 3 3 288 2 287
-165 0 -165 0 0 -80 0 -79 81 -3 82 -3 3 -72 c2 -71 2 -73 -29 -99 -118 -100
-316 -110 -436 -24 -150 109 -164 409 -25 544 117 114 334 121 449 15 21 -18
22 -18 79 40 l58 58 -37 31 c-120 98 -287 136 -435 96z"/>
<path d="M6290 4288 l0 -83 80 -125 80 -125 -80 -3 -80 -3 0 -289 0 -290 80 0
80 0 0 210 0 210 53 0 54 0 29 -51 c39 -68 37 -65 137 -227 l88 -142 95 0 c52
0 94 2 94 5 0 2 -31 53 -68 112 -154 243 -192 305 -192 312 0 5 20 16 43 25
107 41 169 135 169 256 0 109 -42 180 -138 236 -67 40 -160 54 -351 54 l-173
0 0 -82z m427 -107 c45 -21 73 -62 73 -106 0 -44 -28 -85 -73 -106 -55 -24
-74 -24 -88 4 -7 12 -41 66 -76 119 -34 54 -63 100 -63 103 0 3 42 5 93 5 69
0 103 -5 134 -19z"/>
<path d="M7100 4295 l0 -75 60 0 60 0 0 -350 0 -350 -60 0 -60 0 0 -75 0 -75
200 0 200 0 0 75 0 75 -60 0 -60 0 2 348 3 347 53 3 52 3 0 75 0 74 -195 0
-195 0 0 -75z"/>
<path d="M5331 3154 c-47 -59 -11 -157 58 -157 17 0 37 5 44 13 10 10 5 11
-25 6 -40 -7 -64 8 -74 49 -9 38 -1 67 27 88 22 16 30 17 49 7 18 -10 21 -9
18 2 -3 7 -21 14 -40 16 -29 2 -40 -2 -57 -24z"/>
<path d="M5498 3170 c-10 -6 -22 -29 -28 -51 -22 -82 49 -156 109 -112 39 30
50 86 26 132 -17 30 -26 36 -55 38 -19 2 -43 -2 -52 -7z m81 -26 c35 -45 25
-106 -21 -125 -26 -11 -32 -10 -49 8 -26 26 -28 96 -4 123 25 27 50 25 74 -6z"/>
<path d="M5660 3096 c0 -47 5 -88 10 -91 6 -4 10 22 10 72 l0 78 45 -78 c25
-42 50 -77 55 -77 6 0 10 38 10 90 0 61 -4 90 -11 90 -8 0 -10 -22 -5 -75 4
-41 5 -75 2 -75 -2 0 -23 34 -46 75 -56 101 -70 99 -70 -9z"/>
<path d="M5850 3091 c0 -54 4 -91 10 -91 6 0 10 31 10 73 l1 72 32 -56 c37
-64 56 -89 68 -89 5 0 9 41 9 90 0 53 -4 90 -10 90 -6 0 -10 -33 -10 -77 l0
-78 -43 74 c-59 104 -67 103 -67 -8z"/>
<path d="M6038 3100 c-2 -44 -1 -85 0 -90 2 -6 27 -9 55 -8 47 1 48 2 12 5
-43 5 -55 15 -55 50 0 17 7 24 28 29 46 10 48 12 14 13 -64 2 -53 62 14 72 38
6 37 6 -13 8 l-51 1 -4 -80z"/>
<path d="M6201 3159 c-15 -16 -21 -36 -21 -67 0 -54 12 -77 47 -90 29 -10 73
0 73 17 0 5 -12 5 -29 -2 -25 -9 -33 -8 -50 8 -29 25 -29 97 -1 125 23 23 33
24 62 9 16 -9 19 -8 16 3 -3 7 -21 14 -40 16 -27 2 -41 -3 -57 -19z"/>
<path d="M6353 3167 c26 -11 27 -13 27 -89 0 -45 4 -78 10 -78 6 0 10 33 10
80 0 69 2 80 18 80 9 0 24 5 32 10 10 7 -6 9 -55 9 -61 -1 -67 -3 -42 -12z"/>
<path d="M4385 3090 c4 -6 157 -10 426 -10 273 0 419 3 419 10 0 7 -149 10
-426 10 -281 0 -423 -3 -419 -10z"/>
<path d="M6535 3090 c4 -6 157 -10 426 -10 273 0 419 3 419 10 0 7 -149 10
-426 10 -281 0 -423 -3 -419 -10z"/>
</g>
</svg>
